<svg xmlns="http://www.w3.org/2000/svg" id="svg" viewBox="0, 0, 400,154.83870967741936" version="1.1">
  <path fill-rule="evenodd" fill="currentColor" stroke="none" d="M21.352 13.581C10.097 16.122 4.61 28.013 10.016 38.153c3.854 7.229 13.225 10.615 20.716 7.485a28.849 28.849 0 0 1 1.625-.633c.964-.302 2.483-1.464 4.244-3.244 9.104-9.205 4.914-24.432-7.709-28.019-1.371-.389-6.08-.49-7.54-.161m70.148.003c-13.34 2.701-18.001 19.375-8.042 28.77 1.205 1.136 3.071 2.427 4.042 2.796 5.89 2.237 8.822 2.235 14.667-.009 2.497-.959 6.397-4.701 7.614-7.308 3.659-7.832 1.621-16.394-5.127-21.54-3.071-2.343-8.967-3.557-13.154-2.709m140.25-.003c-16.211 3.589-18.192 25.994-2.827 31.987 4.571 1.782 8.106 1.673 13.577-.42 8.664-3.314 12.215-16.66 6.549-24.619-3.924-5.511-10.982-8.346-17.299-6.948m69.5-.002C290.083 16.136 284.724 27.684 289.916 38c1.428 2.836 4.883 6.17 7.417 7.155 5.709 2.221 8.854 2.217 14.667-.014 2.51-.964 6.094-4.368 7.403-7.032 5.006-10.185.221-21.286-10.486-24.327-1.516-.431-6.138-.553-7.667-.203m70.429-.064c-16.052 3.149-18.582 25.572-3.596 31.869 4.695 1.972 8.478 1.909 14.084-.236 6.975-2.668 11.252-12.946 8.523-20.481-.842-2.323-1.074-2.825-1.812-3.917-3.712-5.492-10.827-8.485-17.199-7.235M21.352 61.424c-2.445.531-4.83 1.612-6.627 3.006l-1.624 1.26c-3.946 3.064-6.214 11.468-4.55 16.861 3.338 10.819 15.323 15.515 24.894 9.754.507-.305 1.087-.705 1.289-.888.201-.184.947-.852 1.657-1.486 7.974-7.118 6.281-20.899-3.26-26.55-3.253-1.927-8.161-2.742-11.779-1.957m70.165-.009c-15.768 3.56-18.328 24.949-3.801 31.755 5.529 2.59 13.421 1.782 17.175-1.759.197-.186.944-.854 1.658-1.485 1.244-1.098 2.814-3.168 3.294-4.343.112-.275.341-.812.508-1.193 2.307-5.271 1.329-12.286-2.367-16.973-3.711-4.707-10.784-7.285-16.467-6.002m69.15-.142c-2.925.557-4.526 1.292-8 3.669-2.062 1.411-4.632 5.354-5.472 8.392-4.177 15.125 12.7 27.278 25.666 18.48 7.66-5.198 9.554-15.687 4.251-23.553-1.971-2.925-5.794-5.619-9.371-6.604-1.297-.357-5.903-.607-7.074-.384m71.166.138c-2.544.544-5.404 1.881-6.806 3.181-.242.224-.499.408-.571.408-.231 0-1.618 1.364-2.446 2.405-3.818 4.801-4.694 11.941-2.137 17.428 1.307 2.807 2.049 3.792 4.337 5.758 11.531 9.911 28.842.996 27.604-14.214-.344-4.216-2.979-9.421-5.633-11.124a7.787 7.787 0 0 1-.958-.727c-2.656-2.537-9.093-4.034-13.39-3.115m69.5.005c-4.478 1-10.062 4.893-10.927 7.618-.066.208-.296.645-.512.97-.501.757-1.344 3.064-1.637 4.48-1.574 7.602 2.234 15.318 9.197 18.634 5.651 2.691 13.082 1.931 17.331-1.774 2.157-1.881 2.676-2.395 3.372-3.344 6.463-8.807 2.872-21.645-7.174-25.653-2.787-1.112-7.014-1.519-9.65-.931m70.167 0c-10.916 2.438-16.532 13.89-11.715 23.888 6.656 13.816 26.744 12.056 31.141-2.729 1.764-5.934-.71-14.383-5.078-17.344a28.153 28.153 0 0 1-1.414-1.053c-3.021-2.398-8.92-3.658-12.934-2.762M22 109.28c-16.765 2.749-19.196 25.834-3.389 32.18 14.08 5.654 27.501-9.009 21.17-23.127-2.758-6.149-10.731-10.208-17.781-9.053m69.583.124c-16.246 3.325-18.415 25.571-3.114 31.941 10.962 4.563 23.029-3.464 23.069-15.345.036-10.783-9.521-18.731-19.955-16.596m140.334 0c-3.655.748-5.78 1.868-8.56 4.513-7.361 7.001-6.267 20.099 2.143 25.661 14.255 9.429 31.511-4.687 24.997-20.447-2.945-7.127-10.91-11.297-18.58-9.727m69.5 0c-15.716 3.216-18.503 24.27-4.167 31.471 9.145 4.593 20.246-.122 23.328-9.908 3.859-12.252-6.684-24.116-19.161-21.563m70.166 0c-15.747 3.223-18.532 24.255-4.166 31.471 7.541 3.788 16.899 1.2 21.577-5.966 2.442-3.74 3.255-10.17 1.791-14.159-1.382-3.765-1.701-4.296-3.966-6.597-4.05-4.113-9.715-5.879-15.236-4.749"/>
</svg>
